<svg width="293" height="142" viewBox="0 0 293 142" xmlns="http://www.w3.org/2000/svg" role="img">
<title>Анимированная смешная рожица</title>
<desc>Рожица с двигающимися зрачками, морганием и улыбкой</desc>

<defs>
  <clipPath id="clip0">
    <rect width="292.875" height="142"/>
  </clipPath>
  <clipPath id="lcl">
    <path d="M89 36C106.121 36 120 50.5181 120 68.4268C120 69.2929 119.966 70.151 119.902 71H58.0977C58.0339 70.151 58 69.2929 58 68.4268C58 50.5181 71.8792 36 89 36Z"/>
  </clipPath>
  <clipPath id="rcl">
    <path d="M201.609 36C218.73 36 232.609 50.5181 232.609 68.4268C232.609 69.2929 232.575 70.151 232.512 71H170.707C170.643 70.151 170.609 69.2929 170.609 68.4268C170.609 50.5181 184.489 36 201.609 36Z"/>
  </clipPath>
  <clipPath id="llid">
    <rect x="54" y="33" width="70" height="42"/>
  </clipPath>
  <clipPath id="rlid">
    <rect x="166" y="33" width="70" height="42"/>
  </clipPath>
</defs>

<g clip-path="url(#clip0)">
  <path d="M0 0H292.875V142H0V0Z" fill="#A2DE62"/>

  <!-- MOUTH -->
  <path fill="black">
    <animate attributeName="d"
      values="
        M100 94 Q146 94 200 94 L200 101 Q146 101 100 101 Z;
        M100 94 Q146 94 200 94 L200 101 Q146 101 100 101 Z;
        M100 91 Q146 108 200 91 L200 95 Q146 112 100 95 Z;
        M100 91 Q146 108 200 91 L200 95 Q146 112 100 95 Z;
        M100 94 Q146 94 200 94 L200 101 Q146 101 100 101 Z;
        M100 94 Q146 94 200 94 L200 101 Q146 101 100 101 Z"
      keyTimes="0;0.05;0.15;0.45;0.55;1"
      calcMode="spline"
      keySplines="0.4 0 0.6 1;0.4 0 0.6 1;0.4 0 0.6 1;0.4 0 0.6 1;0.4 0 0.6 1"
      dur="8s" repeatCount="indefinite"/>
  </path>

  <!-- LEFT EYE -->
  <path d="M87.9537 33.3809C88.0873 33.3766 88.2209 33.374 88.3544 33.3733C90.4174 33.3704 92.9934 33.3886 94.9674 33.805C112.086 37.4163 124.166 53.0439 123.322 70.5331C123.28 71.393 123.423 72.8084 122.777 73.4547C121.31 74.029 110.399 73.8264 108.265 73.826L90.0539 73.8184L68.3114 73.8007C64.518 73.7984 60.7196 73.8213 56.9273 73.7648C54.8956 73.6279 54.4556 73.7914 54.4021 71.5312C54.1687 61.6672 57.4976 51.7323 64.198 44.4637C70.3522 37.7909 78.8863 33.8094 87.9537 33.3809Z" fill="black"/>
  <path d="M89 36C106.121 36 120 50.5181 120 68.4268C120 69.2929 119.966 70.151 119.902 71H58.0977C58.0339 70.151 58 69.2929 58 68.4268C58 50.5181 71.8792 36 89 36Z" fill="white"/>
  <circle r="11.5" fill="black" clip-path="url(#lcl)">
    <animate attributeName="cx" values="89;89;89;96;96;89;89;89;89;89;82;82;89;89;89;89;89;89;89" keyTimes="0;0.08;0.10;0.17;0.24;0.31;0.40;0.42;0.44;0.52;0.59;0.66;0.73;0.78;0.80;0.86;0.92;0.96;1" calcMode="spline" keySplines="0.4 0 0.6 1;0.4 0 0.6 1;0.4 0 0.6 1;0.4 0 0.6 1;0.4 0 0.6 1;0.4 0 0.6 1;0.4 0 0.6 1;0.4 0 0.6 1;0.4 0 0.6 1;0.4 0 0.6 1;0.4 0 0.6 1;0.4 0 0.6 1;0.4 0 0.6 1;0.4 0 0.6 1;0.4 0 0.6 1;0.4 0 0.6 1;0.4 0 0.6 1;0.4 0 0.6 1" dur="10s" repeatCount="indefinite"/>
    <animate attributeName="cy" values="52;52;52;52;52;52;52;44;44;52;52;52;52;52;60;60;52;52;52" keyTimes="0;0.08;0.10;0.17;0.24;0.31;0.40;0.42;0.44;0.52;0.59;0.66;0.73;0.78;0.80;0.86;0.92;0.96;1" calcMode="spline" keySplines="0.4 0 0.6 1;0.4 0 0.6 1;0.4 0 0.6 1;0.4 0 0.6 1;0.4 0 0.6 1;0.4 0 0.6 1;0.4 0 0.6 1;0.4 0 0.6 1;0.4 0 0.6 1;0.4 0 0.6 1;0.4 0 0.6 1;0.4 0 0.6 1;0.4 0 0.6 1;0.4 0 0.6 1;0.4 0 0.6 1;0.4 0 0.6 1;0.4 0 0.6 1;0.4 0 0.6 1" dur="10s" repeatCount="indefinite"/>
  </circle>
  <path fill="#A2DE62" clip-path="url(#llid)">
    <animate attributeName="d"
      values="
        M54 33 Q89 33 124 33 L124 33 Q89 33 54 33 Z;
        M54 33 Q89 33 124 33 L124 33 Q89 33 54 33 Z;
        M54 33 Q89 33 124 33 L124 75 Q89 75 54 75 Z;
        M54 33 Q89 33 124 33 L124 33 Q89 33 54 33 Z;
        M54 33 Q89 33 124 33 L124 33 Q89 33 54 33 Z"
      keyTimes="0;0.25;0.27;0.30;1"
      calcMode="spline"
      keySplines="0.4 0 0.6 1;0.05 0 0.2 1;0.4 0 0.6 1;0.4 0 0.6 1"
      dur="8s" repeatCount="indefinite"/>
  </path>

  <!-- RIGHT EYE -->
  <path d="M200.563 33.3809C200.697 33.3766 200.83 33.374 200.964 33.3733C203.027 33.3704 205.603 33.3886 207.577 33.805C224.696 37.4163 236.775 53.0439 235.931 70.5331C235.89 71.393 236.033 72.8084 235.386 73.4547C233.919 74.029 223.008 73.8264 220.874 73.826L202.663 73.8184L180.921 73.8007C177.127 73.7984 173.329 73.8213 169.537 73.7648C167.505 73.6279 167.065 73.7914 167.011 71.5312C166.778 61.6672 170.107 51.7323 176.807 44.4637C182.962 37.7909 191.496 33.8094 200.563 33.3809Z" fill="black"/>
  <path d="M201.609 36C218.73 36 232.609 50.5181 232.609 68.4268C232.609 69.2929 232.575 70.151 232.512 71H170.707C170.643 70.151 170.609 69.2929 170.609 68.4268C170.609 50.5181 184.489 36 201.609 36Z" fill="white"/>
  <circle r="11.5" fill="black" clip-path="url(#rcl)">
    <animate attributeName="cx" values="201;201;201;208;208;201;201;201;201;201;194;194;201;201;201;201;201;201;201" keyTimes="0;0.08;0.10;0.17;0.24;0.31;0.40;0.42;0.44;0.52;0.59;0.66;0.73;0.78;0.80;0.86;0.92;0.96;1" calcMode="spline" keySplines="0.4 0 0.6 1;0.4 0 0.6 1;0.4 0 0.6 1;0.4 0 0.6 1;0.4 0 0.6 1;0.4 0 0.6 1;0.4 0 0.6 1;0.4 0 0.6 1;0.4 0 0.6 1;0.4 0 0.6 1;0.4 0 0.6 1;0.4 0 0.6 1;0.4 0 0.6 1;0.4 0 0.6 1;0.4 0 0.6 1;0.4 0 0.6 1;0.4 0 0.6 1;0.4 0 0.6 1" dur="10s" repeatCount="indefinite"/>
    <animate attributeName="cy" values="52;52;52;52;52;52;52;44;44;52;52;52;52;52;60;60;52;52;52" keyTimes="0;0.08;0.10;0.17;0.24;0.31;0.40;0.42;0.44;0.52;0.59;0.66;0.73;0.78;0.80;0.86;0.92;0.96;1" calcMode="spline" keySplines="0.4 0 0.6 1;0.4 0 0.6 1;0.4 0 0.6 1;0.4 0 0.6 1;0.4 0 0.6 1;0.4 0 0.6 1;0.4 0 0.6 1;0.4 0 0.6 1;0.4 0 0.6 1;0.4 0 0.6 1;0.4 0 0.6 1;0.4 0 0.6 1;0.4 0 0.6 1;0.4 0 0.6 1;0.4 0 0.6 1;0.4 0 0.6 1;0.4 0 0.6 1;0.4 0 0.6 1" dur="10s" repeatCount="indefinite"/>
  </circle>
  <path fill="#A2DE62" clip-path="url(#rlid)">
    <animate attributeName="d"
      values="
        M166 33 Q201 33 236 33 L236 33 Q201 33 166 33 Z;
        M166 33 Q201 33 236 33 L236 33 Q201 33 166 33 Z;
        M166 33 Q201 33 236 33 L236 75 Q201 75 166 75 Z;
        M166 33 Q201 33 236 33 L236 33 Q201 33 166 33 Z;
        M166 33 Q201 33 236 33 L236 33 Q201 33 166 33 Z"
      keyTimes="0;0.25;0.27;0.30;1"
      calcMode="spline"
      keySplines="0.4 0 0.6 1;0.05 0 0.2 1;0.4 0 0.6 1;0.4 0 0.6 1"
      dur="8s" repeatCount="indefinite"/>
  </path>

</g>
</svg>
