<svg width="244" height="400" viewBox="0 0 244 400" fill="none" xmlns="http://www.w3.org/2000/svg">
  <defs>
    <style>
      .phone { animation: phoneAnim 3.6s ease-in-out infinite; }
      @keyframes phoneAnim {
        0%   { transform: translateY(0px); }
        28%  { transform: translateY(103px); }
        62%  { transform: translateY(103px); }
        90%  { transform: translateY(0px); }
        100% { transform: translateY(0px); }
      }
      .flash { opacity: 0; animation: flashAnim 3.6s infinite; }
      @keyframes flashAnim {
        0%,29% { opacity:0; }
        32%    { opacity:1; }
        35%    { opacity:0; }
        39%    { opacity:1; }
        42%    { opacity:0; }
        46%    { opacity:1; }
        49%    { opacity:0; }
        100%   { opacity:0; }
      }
    </style>
  </defs>

  <!-- Тарелка (статичная) -->
  <g transform="translate(0,103)">
    <path d="M119.333 145.731C119.406 145.727 119.476 145.723 119.547 145.72C156.662 145.749 198.358 153.677 226.824 178.965C246.684 196.701 250.482 221.945 231.097 242.063C212.009 261.87 184.662 271.031 158.261 276.089C147.134 278.221 135.89 278.869 124.645 279.238C89.2881 279.802 43.9923 270.386 16.9511 246.025C7.98535 237.948 0.40919 226.334 0.0541205 214C-0.294426 201.9 5.44327 190.85 13.5854 182.243C32.0922 162.679 62.6167 152.371 88.5575 148.356C98.7539 146.86 109.031 145.984 119.333 145.731ZM106.987 156.966C102.982 158.149 100.63 159.57 98.4536 163.336C82.5319 166.169 68.2267 170.524 54.9747 179.383C19.7619 202.924 31.1024 236.115 64.9599 251.825C86.8615 261.987 105.42 264.415 129.009 263.738C135.816 263.158 141.732 262.819 148.504 261.548C167.964 257.89 188.531 249.958 201.84 234.789C216.392 218.203 211.336 197.471 195.321 184.277C180.533 172.096 157.998 164.098 139.076 162.504C136.958 155.205 130.574 150.732 123.142 153.907C120.966 152.617 118.348 151.637 115.77 151.897C111.871 152.21 109.24 153.81 106.987 156.966Z" fill="black"/>
    <path d="M67.2627 191.215C76.9691 190.659 88.85 192.842 98.1475 195.626C101.122 196.516 104.255 198.039 107.158 198.711C110.686 199.033 111.034 198.429 114.848 198.72C118.387 198.989 130.636 200.945 131.807 204.747C132.084 205.645 127.595 208.395 125.943 209.509C133.027 214.611 138.707 220.796 143.691 227.954C144.432 229.019 145.125 230.091 145.925 231.115L146.064 231.293C148.55 231.388 151.408 231.152 153.871 231.044C157.656 230.88 173.134 231.478 174.345 235.05C174.264 235.431 174.14 235.838 173.752 236.037C168.615 238.694 162.704 239.999 157.48 242.493C156.482 243.075 156.098 244.563 155.81 245.556C154.686 249.447 153.755 253.385 151.505 256.807C148.972 257.163 146.435 254.644 144.88 252.916C141.601 249.277 139.912 244.713 138.351 240.161C124.686 240.045 111.13 239.468 97.7854 236.136C97.4727 237.82 97.0145 241.545 95.8264 242.601C95.1947 242.825 94.5441 242.834 93.9024 242.638C87.186 240.586 84.0504 236.169 80.6899 230.716C75.1382 227.987 70.4812 226.082 65.0845 222.28C58.1069 217.367 49.5831 209.509 47.2966 200.948C47.1237 200.301 47.163 199.656 47.5614 199.113C48.6536 198.522 50.7766 199.46 52.1142 199.855C51.6389 198.489 50.6157 196.509 50.3438 195.275C49.9203 193.351 55.6658 192.516 56.811 192.311C60.2339 191.696 63.7864 191.363 67.2627 191.215Z" fill="black"/>
    <path d="M115.042 155.561C115.357 155.537 115.672 155.519 115.987 155.507C119.014 155.39 120.535 156.275 122.635 158.213C124.509 157.04 126.26 156.381 128.53 156.635C130.741 156.894 132.751 158.044 134.094 159.817C137.151 163.83 135.66 168.512 131.808 171.307C132.012 174.455 132.224 175.875 133.592 179.007C134.81 181.862 138.447 184.51 139.237 187.324C139.473 188.165 133.645 193.662 132.592 193.582C130.933 193.455 129.341 190.929 128.047 189.753C124.502 186.802 121.875 184.755 117.094 183.97C116.986 184.175 116.873 184.378 116.754 184.577C115.571 186.553 113.888 187.994 111.608 188.524C109.205 189.06 106.687 188.605 104.626 187.258C102.439 185.86 100.933 183.614 100.468 181.061C99.9056 177.943 100.896 175.987 102.544 173.556C98.7432 167.231 101.871 161.319 109.117 160.41C110.828 157.36 112.237 156.323 115.042 155.561Z" fill="black"/>
    <path d="M163.571 179.931C171.499 179.415 175.989 184.293 170.131 191.126C165.924 196.033 158.983 199.069 152.621 199.605C133.157 200.303 146.062 181.04 163.571 179.931Z" fill="black"/>
    <path d="M179.646 194.386C183.651 193.938 189.892 195.245 193.295 197.565C198.549 201.149 197.276 206.027 191.98 208.591C188.988 210.04 186.534 210.497 183.2 210.881C178.027 211.061 172.633 210.391 168.324 207.269C165.593 205.29 164.364 202.062 166.83 199.293C170.025 195.705 175.074 194.755 179.646 194.386Z" fill="black"/>
    <path d="M165.44 207.313C165.452 207.323 165.464 207.334 165.477 207.344C170.922 214.853 190.762 215.819 196.735 207.434C196.772 209.493 196.879 210.655 196.333 212.616C195.94 213.374 195.426 214.063 194.815 214.659C188.799 220.491 173.056 220.523 167.046 214.345C164.932 212.171 165.336 210.056 165.44 207.313Z" fill="black"/>
    <path d="M163.133 199.405L163.327 199.566C162.361 202.112 162.539 202.944 162.458 205.701C157.677 207.244 150.412 208.799 146.531 204.58C145.845 203.519 145.175 201.666 144.782 200.451C150.438 203.369 157.596 201.861 163.133 199.405Z" fill="black"/>
    <path d="M174.357 188.232C174.99 189.087 175.462 190.751 175.743 191.784C175.064 191.981 174.191 192.144 173.486 192.295C172.998 192.452 173.181 192.433 172.668 192.412C172.714 191.879 173.95 189.57 174.357 188.232Z" fill="black" fill-opacity="0.980392"/>
    <path d="M242.002 232.705C242.076 233.193 241.869 233.624 241.718 234.11C235.159 255.275 218.356 269.46 199.198 279.404C160.671 299.4 109.475 301.787 68.2277 288.993C43.851 281.431 18.3095 266.955 6.15778 243.599C5.05132 241.287 2.55984 235.609 2.12402 233.266L2.25043 233.183C9.11822 246.402 24.4989 257.706 37.7186 264.277C81.6462 286.115 139.675 287.822 186.005 272.674C205.795 266.206 232.39 252.148 242.002 232.705Z" fill="black"/>
  </g>

  <!-- Вспышка -->
  <g class="flash" transform="translate(0,103)">
    <path d="M151.754 94.3441C153.511 94.7105 156.814 96.0997 158.618 96.7358C163.309 98.3906 167.947 100.285 172.678 101.843C169.068 101.927 164.093 102.461 160.402 102.751C155.847 103.109 150.39 103.313 145.969 103.877C149.006 109.019 152.575 115.404 155.819 120.339C150.276 117.78 144.42 115.689 138.805 113.275C136.739 112.386 134.671 111.5 132.566 110.706C129.684 115.894 126.457 122.381 123.811 127.691C122.13 124.059 119.673 119.851 117.849 116.21C117.043 114.601 115.887 112.134 115.029 110.687C111.437 112.218 107.826 113.704 104.198 115.147C100.337 116.897 95.5769 118.449 91.8564 120.356C92.3608 119.545 92.8709 118.667 93.3425 117.837C96.0107 113.141 98.8983 108.56 101.61 103.894C99.0609 103.534 94.6206 103.346 91.9257 103.142L74.7344 101.817C76.8122 101.286 78.8835 100.439 80.9075 99.7101C84.7737 98.3172 88.6645 96.751 92.5757 95.5125C94.3467 96.0999 98.0849 97.9956 99.891 98.8568L113.156 105.156C115.664 106.331 117.894 107.524 120.597 108.217C128.507 110.243 133.625 105.833 139.816 101.87C143.76 99.3068 147.74 96.798 151.754 94.3441Z" fill="black"/>
  </g>

  <!-- Телефон (анимируется) -->
  <g class="phone">
    <path d="M148.302 40.1571C152.58 39.3339 156.732 41.6944 160.437 43.4247L171.507 48.6484L181.579 53.322C183.237 54.0963 185.021 54.844 186.587 55.7635C189.754 57.6227 189.105 59.8686 186.386 61.6291C182.342 64.249 178.297 66.7806 174.248 69.3505L151.627 83.7162L137.897 92.4653C133.66 95.1792 130.51 97.9687 125.406 98.6594C120.437 98.8179 118.232 97.3041 113.882 95.2305L103.803 90.4385L93.1543 85.4251C91.177 84.5004 89.1625 83.6151 87.2361 82.5823C85.4425 81.6206 83.9541 80.0549 85.3908 78.063C85.81 77.4819 86.6022 76.9369 87.2121 76.5503C91.4263 73.8793 95.6916 71.2832 99.9389 68.6645L120.424 55.9735L135.863 46.4534C138.767 44.6627 141.703 42.7975 144.666 41.1137C145.485 40.6481 147.339 40.2888 148.302 40.1571Z" fill="black"/>
    <path d="M188.834 62.5153C189.444 65.7995 188.361 67.2842 185.756 68.9355C182.956 70.7106 180.136 72.4994 177.342 74.2852C169.131 79.576 160.891 84.8221 152.622 90.0231L139.666 98.2805C136.455 100.364 133.234 102.535 129.877 104.389C127.669 105.506 125.157 105.688 122.753 105.5C120.2 105.3 118.6 104.296 116.373 103.25L107.393 98.9884C103.055 96.97 98.7287 94.9272 94.4134 92.8604C91.904 91.6727 86.9217 89.6286 85.0629 87.8416C84.2808 86.6793 84.535 84.9462 84.575 83.5029C86.392 85.043 91.9209 87.4271 94.2556 88.5183L107.335 94.68L115.022 98.3156C117.135 99.3173 119.51 100.63 121.842 100.887C124.214 101.148 127.828 101.103 130.016 99.9845C132.268 98.8344 134.667 97.1855 136.828 95.8155L150.434 87.1452L178.254 69.4802C180.482 68.0468 187.236 64.0042 188.834 62.5153Z" fill="black"/>
  </g>
</svg>
