<svg width="100" height="100" viewBox="0 0 100 100" fill="none" xmlns="http://www.w3.org/2000/svg">
<g clip-path="url(#clip0_515_893)">
<path d="M81.3632 61.8849L19.6865 62.8486L20.0078 71.8431L25.1475 87.5835L29.0023 90.4746L38.6392 93.6869L40.2454 101.396L58.8769 101.718L60.1618 101.396L60.8043 94.0081L71.0837 90.4746L77.1872 84.3712L80.0782 76.6616L81.3632 61.8849Z" fill="#BAA4A4" fill-opacity="0.4"/>
<path d="M46.3496 39.0773L45.3859 38.1136H44.101L37.3551 40.3622L36.7126 39.7197L36.3914 36.8286L34.464 34.2588L29.3243 35.865L27.7181 37.4711L23.8633 43.2533L19.6873 38.756L18.4024 39.0773L14.5476 43.5745L12.9414 46.7869V48.393L15.8325 54.1752L20.0085 59.3149L38.64 58.9937L44.7434 52.2478L46.9921 48.7143L48.277 44.5382V42.2896L46.3496 39.0773Z" fill="#BAA4A4" fill-opacity="0.4"/>
<path d="M79.7577 9.52393L72.6906 12.415L69.4782 15.9486L64.981 22.052L63.3748 25.9068L63.0536 28.7979L62.7324 29.1191V31.689L62.4111 32.0102V38.1136L64.3385 40.3623L67.2296 39.3986L70.4419 37.1499L77.1878 30.404L79.7577 27.1917L82.3276 20.4458L82.0063 14.3424L79.7577 9.52393Z" fill="#BAA4A4" fill-opacity="0.4"/>
<path d="M84.5749 36.1863L83.9325 35.8651L81.3626 36.8288H80.0777L74.6167 39.0774H73.653L72.0469 40.0411L61.4462 51.2843L61.1249 51.9267L60.8037 59.3151L73.0105 58.9939L76.5441 58.0302L79.7564 56.1028L81.3626 53.2117L83.6112 46.4658L84.5749 36.1863Z" fill="#BAA4A4" fill-opacity="0.4"/>
<path d="M70.1208 2.45691L67.551 4.70554L54.0592 20.7672L47.9558 21.0884L40.8887 28.1555L41.8524 29.7617H42.8161L46.3496 27.1918L46.6709 27.8343L43.7798 30.7254L44.4222 32.3315H45.3859L48.9195 29.7617L49.2407 30.4041L46.3496 33.6165L47.3133 34.5802L52.1318 31.0466L52.453 31.6891L49.2407 36.1863L51.1681 37.7925L52.7743 36.1863L56.6291 30.4041L56.9503 23.337L72.3695 5.02677L70.1208 2.45691Z" fill="#BAA4A4" fill-opacity="0.4"/>
<path d="M14.8681 21.0883L14.5469 21.4095V23.0157L14.8681 23.3369V25.2643L15.1893 25.5855L15.5106 26.8704L16.153 27.5129L16.7955 28.7978L17.7592 29.7615V30.0828L19.6866 32.3314H20.0078L22.5777 34.2588L23.8626 34.58L26.7537 31.6889V31.0465L27.0749 30.7252V30.0828L27.7174 28.7978V24.6218L27.3962 24.3006V23.3369L27.0749 22.6944L25.1476 21.4095L24.5051 21.7307L24.1839 23.0157L23.8626 23.3369L23.5414 27.1917L23.2202 27.5129L22.2565 26.8704V26.5492L18.0804 22.052L17.7592 21.4095L17.1167 21.0883H14.8681Z" fill="#BAA4A4" fill-opacity="0.4"/>
<path d="M49.5621 50.3204L47.9559 51.9266V52.2478L47.6347 52.5691V53.5328L47.3135 53.854V55.7814L47.6347 56.1026V57.3876L47.9559 57.7088H48.2772L48.5984 58.03H49.2409L49.8833 58.6725H50.5258L50.847 58.9937H52.132L52.4532 58.6725H53.7381L54.0594 58.3513H54.7018L55.0231 58.03H55.6655L56.6292 57.0663V56.7451L56.9505 56.4239V55.7814L57.2717 55.4602V54.1752L56.9505 53.854V52.8903L56.6292 52.5691V51.9266L56.308 51.6054V51.2841L55.0231 49.9992H54.3806L54.0594 49.678H50.847L50.5258 49.9992H50.2046L49.8833 50.3204H49.5621Z" fill="#BAA4A4" fill-opacity="0.4"/>
<path d="M55.3442 38.1136L55.0229 38.4349H54.7017L52.4531 40.6835V41.0047L52.1318 41.326V41.9684L52.4531 42.2897V43.2534L52.7743 43.5746V44.2171L54.3805 45.8232H54.7017L55.3442 46.4657H55.6654L56.3079 47.1082H56.6291L56.9503 47.4294H57.2716L57.5928 47.1082H57.914L58.2353 46.7869H58.5565L58.8777 46.4657H59.199L59.8414 45.8232H60.1627L61.7688 44.2171V43.2534L62.09 42.9321V42.6109L61.7688 42.2897V41.6472L61.4476 41.326V41.0047L59.199 38.7561H58.8777L58.2353 38.1136H55.3442Z" fill="#BAA4A4" fill-opacity="0.4"/>
<path d="M32.8571 23.337L32.5359 23.6582V23.9794L31.8934 24.6219V25.2644L31.5722 25.5856V26.2281L31.251 26.5493V28.7979L32.8571 30.4041H33.1784L33.8208 31.0466H34.4633L34.7845 31.3678H37.3544L38.3181 30.4041V29.7616L38.6393 29.4404V28.4767L38.9606 28.1555V26.5493L38.6393 26.2281V25.5856L38.3181 25.2644V24.9431L37.9969 24.6219V24.3007L37.6756 23.9794V23.6582L37.3544 23.337H37.0332L36.7119 23.0157H33.4996L33.1784 23.337H32.8571Z" fill="#BAA4A4" fill-opacity="0.4"/>
</g>
<defs>
<clipPath id="clip0_515_893">
<rect width="100" height="100" fill="white"/>
</clipPath>
</defs>
</svg>
